Coordinates
version=1
nRows=6
nColumns=63
inDegrees=yes

Units are S.I. units (second, meters, Newtons, ...)
If the header above contains a line with 'inDegrees', this indicates whether rotational values are in degrees (yes) or radians (no).

endheader
time	pelvis_tilt	pelvis_list	pelvis_rotation	pelvis_tx	pelvis_ty	pelvis_tz	hip_flexion_r	hip_adduction_r	hip_rotation_r	knee_angle_r	knee_angle_r_beta	ankle_angle_r	subtalar_angle_r	mtp_angle_r	hip_flexion_l	hip_adduction_l	hip_rotation_l	knee_angle_l	knee_angle_l_beta	ankle_angle_l	subtalar_angle_l	mtp_angle_l	L5_S1_Flex_Ext	L5_S1_Lat_Bending	L5_S1_axial_rotation	L4_L5_Flex_Ext	L4_L5_Lat_Bending	L4_L5_axial_rotation	L3_L4_Flex_Ext	L3_L4_Lat_Bending	L3_L4_axial_rotation	L2_L3_Flex_Ext	L2_L3_Lat_Bending	L2_L3_axial_rotation	L1_L2_Flex_Ext	L1_L2_Lat_Bending	L1_L2_axial_rotation	L1_T12_Flex_Ext	L1_T12_Lat_Bending	L1_T12_axial_rotation	Abs_r3	Abs_r2	Abs_r1	Abs_t1	Abs_t2	neck_flexion	neck_bending	neck_rotation	arm_flex_r	arm_add_r	arm_rot_r	elbow_flex_r	pro_sup_r	wrist_flex_r	wrist_dev_r	arm_flex_l	arm_add_l	arm_rot_l	elbow_flex_l	pro_sup_l	wrist_flex_l	wrist_dev_l
      3.33333333	      4.15313216	      0.10027435	     84.93779916	      0.32924446	      1.01277330	      0.48453987	      0.98204716	     -1.54236699	     11.70487968	      5.43658816	      0.09488636	     23.76790209	     -5.16297785	      0.00000000	     -0.69882328	      1.22217717	      1.99831218	      3.43432680	      0.05994031	     23.70605304	    -14.93460245	      0.00000000	      0.06193817	     -0.09654850	      0.99377695	      0.11502537	     -0.12840951	      1.05588800	      0.10175821	     -0.23474803	      1.05588800	      0.07078913	     -0.23474803	      0.86955483	      0.05751578	     -0.19688170	      0.80744377	      0.03539147	     -0.14955363	      0.74533271	      0.44241813	     -1.09217595	      5.52708924	      0.00000000	      0.00000000	     25.79769257	      0.35017473	    -10.81065207	      0.29097067	    -31.80473635	     -1.41882729	    138.53256062	     87.97839109	      0.03237108	      7.98564320	     -5.36616365	    -28.82126427	     -7.56751646	    141.68893302	     78.68805352	     -8.64609586	     10.21612354
      3.35000000	      4.01910960	      0.40934077	     84.81821033	      0.32933526	      1.01330501	      0.48465567	      0.68520455	     -1.71680596	     11.80016899	      5.44307785	      0.09499963	     23.78668304	     -5.12333013	      0.00000000	     -0.83963303	      1.36870783	      1.32200150	      3.74677968	      0.06539364	     23.77620653	    -14.16409409	      0.00000000	      0.04335252	     -0.10862615	      0.95923352	      0.08050996	     -0.14447278	      1.01918561	      0.07122385	     -0.26411362	      1.01918561	      0.04954759	     -0.26411362	      0.83932933	      0.04025715	     -0.22151044	      0.77937723	      0.02477163	     -0.16826191	      0.71942514	      0.30966271	     -1.22880073	      5.33496905	      0.00000000	      0.00000000	     25.71558980	      1.25785309	     -9.60160580	      2.80465979	    -31.74724912	      0.14781560	    137.74681447	     88.20887905	      0.20137965	      8.51869670	     -3.83833970	    -28.84023299	     -6.95112157	    142.17729657	     75.18855788	     -8.48937688	     14.18255520
      3.36666667	      3.96948188	      0.53371735	     84.80777177	      0.32905240	      1.01384920	      0.48487757	      0.54966579	     -1.80877956	     11.81121426	      5.39326973	      0.09413031	     23.67375936	     -5.11869981	      0.00000000	     -0.82284719	      1.43174180	      1.17653130	      3.92901642	      0.06857427	     23.53211580	    -13.99373151	      0.00000000	      0.05083433	     -0.10057157	      0.96240027	      0.09440443	     -0.13376019	      1.02255029	      0.08351572	     -0.24452972	      1.02255029	      0.05809855	     -0.24452972	      0.84210024	      0.04720476	     -0.20508555	      0.78195022	      0.02904673	     -0.15578537	      0.72180020	      0.36310451	     -1.13768574	      5.35258160	      0.00000000	      0.00000000	     25.51275734	      1.42376955	     -8.98556872	      5.02605665	    -31.52867384	      1.31915670	    137.12187353	     88.24492262	      0.47811417	      9.18519838	     -1.47939040	    -28.72315578	     -5.44670499	    141.37505559	     74.81698478	     -8.25794576	     14.50836795
      3.38333333	      3.93173781	      0.24042296	     84.74545881	      0.32903770	      1.01409944	      0.48484036	      0.76819586	     -1.85579182	     11.93817663	      5.16441907	      0.09013612	     23.45583188	     -4.98996204	      0.00000000	     -0.52785489	      1.42631820	      1.13664735	      3.79598926	      0.06625251	     23.12636040	    -13.82482064	      0.00000000	      0.12873704	     -0.08568887	      0.94207829	      0.23907755	     -0.11396619	      1.00095818	      0.21150208	     -0.20834391	      1.00095818	      0.14713356	     -0.20834391	      0.82431850	      0.11954521	     -0.17473674	      0.76543861	      0.07356034	     -0.13273205	      0.70655871	      0.91955577	     -0.96932959	      5.23955681	      0.00000000	      0.00000000	     25.51516424	      1.47333528	     -8.50979732	      7.04905904	    -30.69562101	      2.54329358	    136.54970978	     88.30277060	      0.74816220	      9.62002027	      1.02196638	    -28.17385438	     -4.18725528	    140.22134516	     74.75696914	     -8.14620621	     14.77276075
      3.40000000	      3.86234868	      0.78576779	     84.63884753	      0.32869250	      1.01526136	      0.48585642	      0.36644466	     -1.99038040	     11.87300577	      5.37868231	      0.09387572	     23.29785884	     -5.03358825	      0.00000000	     -0.87985959	      1.55926928	      0.77762380	      4.06648967	      0.07097363	     22.85680576	    -13.70957046	      0.00000000	      0.06693866	     -0.05847587	      0.96220369	      0.12431178	     -0.07777291	      1.02234142	      0.10997352	     -0.14217823	      1.02234142	      0.07650419	     -0.14217823	      0.84192823	      0.06215924	     -0.11924400	      0.78179050	      0.03824875	     -0.09057912	      0.72165277	      0.47813612	     -0.66149075	      5.35148827	      0.00000000	      0.00000000	     25.02821334	      1.81915293	     -6.28923457	      9.91424093	    -30.65119577	      4.17778930	    136.09497635	     88.24171388	      1.64422018	     11.10728516	      5.05803453	    -28.13483967	     -1.98827055	    137.95479350	     74.54529933	     -8.26707502	     15.37861158
      3.41666667	      3.93216925	      0.84554031	     84.18240480	      0.32894603	      1.01574702	      0.48632884	      0.37916279	     -1.95196667	     12.14802915	      5.37479080	      0.09380780	     23.18498313	     -4.62922208	      0.00000000	     -0.95538011	      1.47828793	     -0.07217709	      3.98769613	      0.06959843	     22.85980591	    -12.99333422	      0.00000000	      0.08196373	     -0.01295671	      1.05127521	      0.15221484	     -0.01723242	      1.11697992	      0.13465821	     -0.03150293	      1.11697992	      0.09367634	     -0.03150293	      0.91986581	      0.07611152	     -0.02642131	      0.85416111	      0.04683407	     -0.02006994	      0.78845641	      0.58545870	     -0.14656885	      5.84687736	      0.00000000	      0.00000000	     25.09579354	      2.76182511	     -3.70543520	     11.94943604	    -29.60887871	      4.18355041	    136.60140680	     88.16954924	      5.67043215	     15.39444966	      8.89688316	    -27.61581361	      0.58237385	    135.91279269	     73.59797244	    -10.26425301	     16.15754871
